<svg xmlns="http://www.w3.org/2000/svg" width="512" height="512" viewBox="0 0 512 512">
    <rect x="0" y="0" width="512" height="512" fill="white"/>
    
    <!-- American Flag -->
    <rect x="150" y="100" width="212" height="120" fill="none" stroke="black" stroke-width="3"/>
    
    <!-- Stripes -->
    <line x1="150" y1="110" x2="362" y2="110" stroke="black" stroke-width="2"/>
    <line x1="150" y1="120" x2="362" y2="120" stroke="black" stroke-width="2"/>
    <line x1="150" y1="130" x2="362" y2="130" stroke="black" stroke-width="2"/>
    <line x1="150" y1="140" x2="362" y2="140" stroke="black" stroke-width="2"/>
    
    <!-- Star field -->
    <rect x="150" y="100" width="85" height="60" fill="none" stroke="black" stroke-width="2"/>
    
    <!-- Stars -->
    <text x="170" y="120" font-family="Arial" font-size="12" fill="black">★</text>
    <text x="190" y="120" font-family="Arial" font-size="12" fill="black">★</text>
    <text x="210" y="120" font-family="Arial" font-size="12" fill="black">★</text>
    <text x="180" y="135" font-family="Arial" font-size="12" fill="black">★</text>
    <text x="200" y="135" font-family="Arial" font-size="12" fill="black">★</text>
    <text x="170" y="150" font-family="Arial" font-size="12" fill="black">★</text>
    <text x="190" y="150" font-family="Arial" font-size="12" fill="black">★</text>
    <text x="210" y="150" font-family="Arial" font-size="12" fill="black">★</text>
    
    <!-- Liberty Bell -->
    <path d="M 200 280 Q 180 260 180 240 Q 180 220 200 210 Q 220 200 240 200 Q 260 200 280 210 Q 300 220 300 240 Q 300 260 280 280 Z" fill="none" stroke="black" stroke-width="3"/>
    <rect x="235" y="280" width="10" height="30" fill="none" stroke="black" stroke-width="2"/>
    <line x1="220" y1="250" x2="260" y2="250" stroke="black" stroke-width="2"/>
    
    <text x="256" y="460" font-family="Arial" font-size="14" text-anchor="middle" fill="black">
      american flag liberty bell history color
    </text>
  </svg>