<svg xmlns="http://www.w3.org/2000/svg" width="512" height="512" viewBox="0 0 512 512">
    <rect x="0" y="0" width="512" height="512" fill="white"/>
    
    <!-- Cat outline -->
    <circle cx="256" cy="180" r="80" fill="none" stroke="black" stroke-width="3"/>
    <circle cx="230" cy="160" r="12" fill="none" stroke="black" stroke-width="2"/>
    <circle cx="282" cy="160" r="12" fill="none" stroke="black" stroke-width="2"/>
    <path d="M 240 190 Q 256 200 272 190" fill="none" stroke="black" stroke-width="2"/>
    <line x1="256" y1="200" x2="256" y2="210" stroke="black" stroke-width="2"/>
    <path d="M 240 210 Q 256 220 272 210" fill="none" stroke="black" stroke-width="2"/>
    
    <!-- Ears -->
    <polygon points="200,120 220,80 240,120" fill="none" stroke="black" stroke-width="3"/>
    <polygon points="272,120 292,80 312,120" fill="none" stroke="black" stroke-width="3"/>
    
    <!-- Body -->
    <ellipse cx="256" cy="320" rx="60" ry="80" fill="none" stroke="black" stroke-width="3"/>
    
    <!-- Legs -->
    <rect x="220" y="380" width="15" height="40" fill="none" stroke="black" stroke-width="2"/>
    <rect x="277" y="380" width="15" height="40" fill="none" stroke="black" stroke-width="2"/>
    
    <!-- Tail -->
    <path d="M 316 300 Q 350 280 360 320 Q 370 360 340 380" fill="none" stroke="black" stroke-width="3"/>
    
    <!-- Whiskers -->
    <line x1="180" y1="170" x2="220" y2="175" stroke="black" stroke-width="1"/>
    <line x1="180" y1="185" x2="220" y2="185" stroke="black" stroke-width="1"/>
    <line x1="292" y1="175" x2="332" y2="170" stroke="black" stroke-width="1"/>
    <line x1="292" y1="185" x2="332" y2="185" stroke="black" stroke-width="1"/>
    
    <text x="256" y="460" font-family="Arial" font-size="14" text-anchor="middle" fill="black">
      cat animal coloring page for children
    </text>
  </svg>