
  <svg xmlns="http://www.w3.org/2000/svg" viewBox="0 0 800 600" width="800" height="600">
    <rect width="800" height="600" fill="white"/>
    <text x="400" y="30" font-family="Arial" font-size="24" text-anchor="middle" fill="black">America's Birthday: Founding Heroes</text>
    <text x="400" y="60" font-family="Arial" font-size="14" text-anchor="middle" fill="gray">Color these American symbols!</text>
  
      <g transform="translate(150, 100)">
        <!-- Crown -->
        <path d="M60,10 C80,0 120,0 140,10 C145,15 145,20 140,25 L140,40 L60,40 L60,25 C55,20 55,15 60,10 Z" 
              fill="none" stroke="black" stroke-width="2"/>
              
        <!-- Bell Body -->
        <path d="M65,40 L65,45 L135,45 L135,40 M60,45 C60,45 55,50 55,55 L55,150 C55,180 75,205 100,220 C125,205 145,180 145,150 L145,55 C145,50 140,45 140,45" 
              fill="none" stroke="black" stroke-width="2"/>
              
        <!-- Yoke -->
        <path d="M80,40 L80,70 M120,40 L120,70" fill="none" stroke="black" stroke-width="2"/>
              
        <!-- Crack -->
        <path d="M100,100 L95,150 L105,170 L95,190" fill="none" stroke="black" stroke-width="1.5" stroke-dasharray="3,2"/>
              
        <!-- Lip -->
        <path d="M85,220 L115,220" fill="none" stroke="black" stroke-width="3"/>
        
        <text x="100" y="250" font-family="Arial" font-size="16" text-anchor="middle">Liberty Bell (1752)</text>
        <text x="100" y="270" font-family="Arial" font-size="12" text-anchor="middle" fill="gray">Symbol of American Independence</text>
      </g>
    
      <g transform="translate(450, 100)">
        <!-- Flag outline -->
        <rect x="0" y="0" width="250" height="150" fill="none" stroke="black" stroke-width="2"/>
        
        <!-- Union (blue field) -->
        <rect x="0" y="0" width="100" height="80" fill="none" stroke="black" stroke-width="1"/>
        
        <!-- Stars (arranged in rows) -->
        <path d="M 14.285714285714286,9.333333333333334 L 15.226170689382243,12.038906142333417 L 18.0899403508949,12.097265355833544 L 15.807404711786532,13.82776052433325 L 16.636855294884178,16.569401310833122 L 14.285714285714286,14.933333333333334 L 11.934573276544395,16.569401310833122 L 12.764023859642041,13.82776052433325 L 10.481488220533672,12.097265355833546 L 13.34525788204633,12.038906142333419 Z" fill="none" stroke="black" stroke-width="0.5"/><path d="M 28.571428571428573,9.333333333333334 L 29.511884975096528,12.038906142333417 L 32.375654636609184,12.097265355833544 L 30.09311899750082,13.82776052433325 L 30.922569580598466,16.569401310833122 L 28.571428571428573,14.933333333333334 L 26.22028756225868,16.569401310833122 L 27.049738145356326,13.82776052433325 L 24.76720250624796,12.097265355833546 L 27.630972167760614,12.038906142333419 Z" fill="none" stroke="black" stroke-width="0.5"/><path d="M 42.85714285714286,9.333333333333334 L 43.79759926081082,12.038906142333417 L 46.661368922323476,12.097265355833544 L 44.37883328321511,13.82776052433325 L 45.208283866312755,16.569401310833122 L 42.85714285714286,14.933333333333334 L 40.50600184797297,16.569401310833122 L 41.335452431070614,13.82776052433325 L 39.05291679196225,12.097265355833546 L 41.9166864534749,12.038906142333419 Z" fill="none" stroke="black" stroke-width="0.5"/><path d="M 57.142857142857146,9.333333333333334 L 58.083313546525105,12.038906142333417 L 60.94708320803776,12.097265355833544 L 58.66454756892939,13.82776052433325 L 59.49399815202704,16.569401310833122 L 57.142857142857146,14.933333333333334 L 54.79171613368725,16.569401310833122 L 55.6211667167849,13.82776052433325 L 53.33863107767653,12.097265355833546 L 56.20240073918919,12.038906142333419 Z" fill="none" stroke="black" stroke-width="0.5"/><path d="M 71.42857142857143,9.333333333333334 L 72.36902783223938,12.038906142333417 L 75.23279749375205,12.097265355833544 L 72.95026185464367,13.82776052433325 L 73.77971243774132,16.569401310833122 L 71.42857142857143,14.933333333333334 L 69.07743041940154,16.569401310833122 L 69.90688100249919,13.82776052433325 L 67.62434536339082,12.097265355833546 L 70.48811502490348,12.038906142333419 Z" fill="none" stroke="black" stroke-width="0.5"/><path d="M 85.71428571428572,9.333333333333334 L 86.65474211795367,12.038906142333417 L 89.51851177946634,12.097265355833544 L 87.23597614035796,13.82776052433325 L 88.06542672345562,16.569401310833122 L 85.71428571428572,14.933333333333334 L 83.36314470511583,16.569401310833122 L 84.19259528821348,13.82776052433325 L 81.91005964910511,12.097265355833546 L 84.77382931061777,12.038906142333419 Z" fill="none" stroke="black" stroke-width="0.5"/><path d="M 14.285714285714286,22.666666666666668 L 15.226170689382243,25.372239475666753 L 18.0899403508949,25.430598689166878 L 15.807404711786532,27.161093857666582 L 16.636855294884178,29.902734644166458 L 14.285714285714286,28.26666666666667 L 11.934573276544395,29.902734644166458 L 12.764023859642041,27.161093857666582 L 10.481488220533672,25.430598689166878 L 13.34525788204633,25.372239475666753 Z" fill="none" stroke="black" stroke-width="0.5"/><path d="M 28.571428571428573,22.666666666666668 L 29.511884975096528,25.372239475666753 L 32.375654636609184,25.430598689166878 L 30.09311899750082,27.161093857666582 L 30.922569580598466,29.902734644166458 L 28.571428571428573,28.26666666666667 L 26.22028756225868,29.902734644166458 L 27.049738145356326,27.161093857666582 L 24.76720250624796,25.430598689166878 L 27.630972167760614,25.372239475666753 Z" fill="none" stroke="black" stroke-width="0.5"/><path d="M 42.85714285714286,22.666666666666668 L 43.79759926081082,25.372239475666753 L 46.661368922323476,25.430598689166878 L 44.37883328321511,27.161093857666582 L 45.208283866312755,29.902734644166458 L 42.85714285714286,28.26666666666667 L 40.50600184797297,29.902734644166458 L 41.335452431070614,27.161093857666582 L 39.05291679196225,25.430598689166878 L 41.9166864534749,25.372239475666753 Z" fill="none" stroke="black" stroke-width="0.5"/><path d="M 57.142857142857146,22.666666666666668 L 58.083313546525105,25.372239475666753 L 60.94708320803776,25.430598689166878 L 58.66454756892939,27.161093857666582 L 59.49399815202704,29.902734644166458 L 57.142857142857146,28.26666666666667 L 54.79171613368725,29.902734644166458 L 55.6211667167849,27.161093857666582 L 53.33863107767653,25.430598689166878 L 56.20240073918919,25.372239475666753 Z" fill="none" stroke="black" stroke-width="0.5"/><path d="M 71.42857142857143,22.666666666666668 L 72.36902783223938,25.372239475666753 L 75.23279749375205,25.430598689166878 L 72.95026185464367,27.161093857666582 L 73.77971243774132,29.902734644166458 L 71.42857142857143,28.26666666666667 L 69.07743041940154,29.902734644166458 L 69.90688100249919,27.161093857666582 L 67.62434536339082,25.430598689166878 L 70.48811502490348,25.372239475666753 Z" fill="none" stroke="black" stroke-width="0.5"/><path d="M 85.71428571428572,22.666666666666668 L 86.65474211795367,25.372239475666753 L 89.51851177946634,25.430598689166878 L 87.23597614035796,27.161093857666582 L 88.06542672345562,29.902734644166458 L 85.71428571428572,28.26666666666667 L 83.36314470511583,29.902734644166458 L 84.19259528821348,27.161093857666582 L 81.91005964910511,25.430598689166878 L 84.77382931061777,25.372239475666753 Z" fill="none" stroke="black" stroke-width="0.5"/><path d="M 14.285714285714286,36 L 15.226170689382243,38.70557280900008 L 18.0899403508949,38.763932022500214 L 15.807404711786532,40.494427190999915 L 16.636855294884178,43.236067977499786 L 14.285714285714286,41.6 L 11.934573276544395,43.236067977499786 L 12.764023859642041,40.494427190999915 L 10.481488220533672,38.763932022500214 L 13.34525788204633,38.70557280900008 Z" fill="none" stroke="black" stroke-width="0.5"/><path d="M 28.571428571428573,36 L 29.511884975096528,38.70557280900008 L 32.375654636609184,38.763932022500214 L 30.09311899750082,40.494427190999915 L 30.922569580598466,43.236067977499786 L 28.571428571428573,41.6 L 26.22028756225868,43.236067977499786 L 27.049738145356326,40.494427190999915 L 24.76720250624796,38.763932022500214 L 27.630972167760614,38.70557280900008 Z" fill="none" stroke="black" stroke-width="0.5"/><path d="M 42.85714285714286,36 L 43.79759926081082,38.70557280900008 L 46.661368922323476,38.763932022500214 L 44.37883328321511,40.494427190999915 L 45.208283866312755,43.236067977499786 L 42.85714285714286,41.6 L 40.50600184797297,43.236067977499786 L 41.335452431070614,40.494427190999915 L 39.05291679196225,38.763932022500214 L 41.9166864534749,38.70557280900008 Z" fill="none" stroke="black" stroke-width="0.5"/><path d="M 57.142857142857146,36 L 58.083313546525105,38.70557280900008 L 60.94708320803776,38.763932022500214 L 58.66454756892939,40.494427190999915 L 59.49399815202704,43.236067977499786 L 57.142857142857146,41.6 L 54.79171613368725,43.236067977499786 L 55.6211667167849,40.494427190999915 L 53.33863107767653,38.763932022500214 L 56.20240073918919,38.70557280900008 Z" fill="none" stroke="black" stroke-width="0.5"/><path d="M 71.42857142857143,36 L 72.36902783223938,38.70557280900008 L 75.23279749375205,38.763932022500214 L 72.95026185464367,40.494427190999915 L 73.77971243774132,43.236067977499786 L 71.42857142857143,41.6 L 69.07743041940154,43.236067977499786 L 69.90688100249919,40.494427190999915 L 67.62434536339082,38.763932022500214 L 70.48811502490348,38.70557280900008 Z" fill="none" stroke="black" stroke-width="0.5"/><path d="M 85.71428571428572,36 L 86.65474211795367,38.70557280900008 L 89.51851177946634,38.763932022500214 L 87.23597614035796,40.494427190999915 L 88.06542672345562,43.236067977499786 L 85.71428571428572,41.6 L 83.36314470511583,43.236067977499786 L 84.19259528821348,40.494427190999915 L 81.91005964910511,38.763932022500214 L 84.77382931061777,38.70557280900008 Z" fill="none" stroke="black" stroke-width="0.5"/><path d="M 14.285714285714286,49.333333333333336 L 15.226170689382243,52.03890614233342 L 18.0899403508949,52.09726535583354 L 15.807404711786532,53.82776052433325 L 16.636855294884178,56.56940131083312 L 14.285714285714286,54.93333333333334 L 11.934573276544395,56.56940131083313 L 12.764023859642041,53.82776052433325 L 10.481488220533672,52.09726535583355 L 13.34525788204633,52.03890614233342 Z" fill="none" stroke="black" stroke-width="0.5"/><path d="M 28.571428571428573,49.333333333333336 L 29.511884975096528,52.03890614233342 L 32.375654636609184,52.09726535583354 L 30.09311899750082,53.82776052433325 L 30.922569580598466,56.56940131083312 L 28.571428571428573,54.93333333333334 L 26.22028756225868,56.56940131083313 L 27.049738145356326,53.82776052433325 L 24.76720250624796,52.09726535583355 L 27.630972167760614,52.03890614233342 Z" fill="none" stroke="black" stroke-width="0.5"/><path d="M 42.85714285714286,49.333333333333336 L 43.79759926081082,52.03890614233342 L 46.661368922323476,52.09726535583354 L 44.37883328321511,53.82776052433325 L 45.208283866312755,56.56940131083312 L 42.85714285714286,54.93333333333334 L 40.50600184797297,56.56940131083313 L 41.335452431070614,53.82776052433325 L 39.05291679196225,52.09726535583355 L 41.9166864534749,52.03890614233342 Z" fill="none" stroke="black" stroke-width="0.5"/><path d="M 57.142857142857146,49.333333333333336 L 58.083313546525105,52.03890614233342 L 60.94708320803776,52.09726535583354 L 58.66454756892939,53.82776052433325 L 59.49399815202704,56.56940131083312 L 57.142857142857146,54.93333333333334 L 54.79171613368725,56.56940131083313 L 55.6211667167849,53.82776052433325 L 53.33863107767653,52.09726535583355 L 56.20240073918919,52.03890614233342 Z" fill="none" stroke="black" stroke-width="0.5"/><path d="M 71.42857142857143,49.333333333333336 L 72.36902783223938,52.03890614233342 L 75.23279749375205,52.09726535583354 L 72.95026185464367,53.82776052433325 L 73.77971243774132,56.56940131083312 L 71.42857142857143,54.93333333333334 L 69.07743041940154,56.56940131083313 L 69.90688100249919,53.82776052433325 L 67.62434536339082,52.09726535583355 L 70.48811502490348,52.03890614233342 Z" fill="none" stroke="black" stroke-width="0.5"/><path d="M 85.71428571428572,49.333333333333336 L 86.65474211795367,52.03890614233342 L 89.51851177946634,52.09726535583354 L 87.23597614035796,53.82776052433325 L 88.06542672345562,56.56940131083312 L 85.71428571428572,54.93333333333334 L 83.36314470511583,56.56940131083313 L 84.19259528821348,53.82776052433325 L 81.91005964910511,52.09726535583355 L 84.77382931061777,52.03890614233342 Z" fill="none" stroke="black" stroke-width="0.5"/><path d="M 14.285714285714286,62.66666666666667 L 15.226170689382243,65.37223947566676 L 18.0899403508949,65.43059868916689 L 15.807404711786532,67.16109385766659 L 16.636855294884178,69.90273464416646 L 14.285714285714286,68.26666666666667 L 11.934573276544395,69.90273464416646 L 12.764023859642041,67.16109385766659 L 10.481488220533672,65.43059868916689 L 13.34525788204633,65.37223947566676 Z" fill="none" stroke="black" stroke-width="0.5"/><path d="M 28.571428571428573,62.66666666666667 L 29.511884975096528,65.37223947566676 L 32.375654636609184,65.43059868916689 L 30.09311899750082,67.16109385766659 L 30.922569580598466,69.90273464416646 L 28.571428571428573,68.26666666666667 L 26.22028756225868,69.90273464416646 L 27.049738145356326,67.16109385766659 L 24.76720250624796,65.43059868916689 L 27.630972167760614,65.37223947566676 Z" fill="none" stroke="black" stroke-width="0.5"/><path d="M 42.85714285714286,62.66666666666667 L 43.79759926081082,65.37223947566676 L 46.661368922323476,65.43059868916689 L 44.37883328321511,67.16109385766659 L 45.208283866312755,69.90273464416646 L 42.85714285714286,68.26666666666667 L 40.50600184797297,69.90273464416646 L 41.335452431070614,67.16109385766659 L 39.05291679196225,65.43059868916689 L 41.9166864534749,65.37223947566676 Z" fill="none" stroke="black" stroke-width="0.5"/><path d="M 57.142857142857146,62.66666666666667 L 58.083313546525105,65.37223947566676 L 60.94708320803776,65.43059868916689 L 58.66454756892939,67.16109385766659 L 59.49399815202704,69.90273464416646 L 57.142857142857146,68.26666666666667 L 54.79171613368725,69.90273464416646 L 55.6211667167849,67.16109385766659 L 53.33863107767653,65.43059868916689 L 56.20240073918919,65.37223947566676 Z" fill="none" stroke="black" stroke-width="0.5"/><path d="M 71.42857142857143,62.66666666666667 L 72.36902783223938,65.37223947566676 L 75.23279749375205,65.43059868916689 L 72.95026185464367,67.16109385766659 L 73.77971243774132,69.90273464416646 L 71.42857142857143,68.26666666666667 L 69.07743041940154,69.90273464416646 L 69.90688100249919,67.16109385766659 L 67.62434536339082,65.43059868916689 L 70.48811502490348,65.37223947566676 Z" fill="none" stroke="black" stroke-width="0.5"/><path d="M 85.71428571428572,62.66666666666667 L 86.65474211795367,65.37223947566676 L 89.51851177946634,65.43059868916689 L 87.23597614035796,67.16109385766659 L 88.06542672345562,69.90273464416646 L 85.71428571428572,68.26666666666667 L 83.36314470511583,69.90273464416646 L 84.19259528821348,67.16109385766659 L 81.91005964910511,65.43059868916689 L 84.77382931061777,65.37223947566676 Z" fill="none" stroke="black" stroke-width="0.5"/>
        
        <!-- 13 Stripes for the 13 original colonies -->
        <rect x="0" y="0" width="250" height="11.538461538461538" fill="none" stroke="black" stroke-width="0.5"/><rect x="0" y="11.538461538461538" width="250" height="11.538461538461538" fill="none" stroke="black" stroke-width="0.5"/><rect x="0" y="23.076923076923077" width="250" height="11.538461538461538" fill="none" stroke="black" stroke-width="0.5"/><rect x="0" y="34.61538461538461" width="250" height="11.538461538461538" fill="none" stroke="black" stroke-width="0.5"/><rect x="0" y="46.15384615384615" width="250" height="11.538461538461538" fill="none" stroke="black" stroke-width="0.5"/><rect x="0" y="57.69230769230769" width="250" height="11.538461538461538" fill="none" stroke="black" stroke-width="0.5"/><rect x="0" y="69.23076923076923" width="250" height="11.538461538461538" fill="none" stroke="black" stroke-width="0.5"/><rect x="0" y="80.76923076923077" width="250" height="11.538461538461538" fill="none" stroke="black" stroke-width="0.5"/><rect x="0" y="92.3076923076923" width="250" height="11.538461538461538" fill="none" stroke="black" stroke-width="0.5"/><rect x="0" y="103.84615384615384" width="250" height="11.538461538461538" fill="none" stroke="black" stroke-width="0.5"/><rect x="0" y="115.38461538461539" width="250" height="11.538461538461538" fill="none" stroke="black" stroke-width="0.5"/><rect x="0" y="126.92307692307692" width="250" height="11.538461538461538" fill="none" stroke="black" stroke-width="0.5"/><rect x="0" y="138.46153846153845" width="250" height="11.538461538461538" fill="none" stroke="black" stroke-width="0.5"/>
        
        <text x="125" y="180" font-family="Arial" font-size="16" text-anchor="middle">American Flag</text>
        <text x="125" y="200" font-family="Arial" font-size="12" text-anchor="middle" fill="gray">50 stars for states, 13 stripes for original colonies</text>
      </g>
    </svg>