
  <svg xmlns="http://www.w3.org/2000/svg" viewBox="0 0 800 600" width="800" height="600">
    <rect width="800" height="600" fill="white"/>
    <text x="400" y="30" font-family="Arial" font-size="24" text-anchor="middle" fill="black">History Crossword Activity</text>
    
    <!-- Simple crossword grid -->
    <g transform="translate(250, 100)">
      <rect x="0" y="0" width="30" height="30" fill="white" stroke="black" stroke-width="1"/><rect x="30" y="0" width="30" height="30" fill="white" stroke="black" stroke-width="1"/><rect x="60" y="0" width="30" height="30" fill="white" stroke="black" stroke-width="1"/><rect x="90" y="0" width="30" height="30" fill="white" stroke="black" stroke-width="1"/><rect x="120" y="0" width="30" height="30" fill="white" stroke="black" stroke-width="1"/><rect x="150" y="0" width="30" height="30" fill="white" stroke="black" stroke-width="1"/><rect x="180" y="0" width="30" height="30" fill="white" stroke="black" stroke-width="1"/><rect x="210" y="0" width="30" height="30" fill="white" stroke="black" stroke-width="1"/><rect x="240" y="0" width="30" height="30" fill="white" stroke="black" stroke-width="1"/><rect x="270" y="0" width="30" height="30" fill="white" stroke="black" stroke-width="1"/><rect x="0" y="30" width="30" height="30" fill="white" stroke="black" stroke-width="1"/><rect x="30" y="30" width="30" height="30" fill="white" stroke="black" stroke-width="1"/><rect x="60" y="30" width="30" height="30" fill="white" stroke="black" stroke-width="1"/><rect x="90" y="30" width="30" height="30" fill="white" stroke="black" stroke-width="1"/><rect x="120" y="30" width="30" height="30" fill="black" stroke="black" stroke-width="1"/><rect x="150" y="30" width="30" height="30" fill="black" stroke="black" stroke-width="1"/><rect x="180" y="30" width="30" height="30" fill="white" stroke="black" stroke-width="1"/><rect x="210" y="30" width="30" height="30" fill="white" stroke="black" stroke-width="1"/><rect x="240" y="30" width="30" height="30" fill="white" stroke="black" stroke-width="1"/><rect x="270" y="30" width="30" height="30" fill="white" stroke="black" stroke-width="1"/><rect x="0" y="60" width="30" height="30" fill="white" stroke="black" stroke-width="1"/><rect x="30" y="60" width="30" height="30" fill="white" stroke="black" stroke-width="1"/><rect x="60" y="60" width="30" height="30" fill="white" stroke="black" stroke-width="1"/><rect x="90" y="60" width="30" height="30" fill="white" stroke="black" stroke-width="1"/><rect x="120" y="60" width="30" height="30" fill="black" stroke="black" stroke-width="1"/><rect x="150" y="60" width="30" height="30" fill="white" stroke="black" stroke-width="1"/><rect x="180" y="60" width="30" height="30" fill="white" stroke="black" stroke-width="1"/><rect x="210" y="60" width="30" height="30" fill="white" stroke="black" stroke-width="1"/><rect x="240" y="60" width="30" height="30" fill="black" stroke="black" stroke-width="1"/><rect x="270" y="60" width="30" height="30" fill="white" stroke="black" stroke-width="1"/><rect x="0" y="90" width="30" height="30" fill="black" stroke="black" stroke-width="1"/><rect x="30" y="90" width="30" height="30" fill="white" stroke="black" stroke-width="1"/><rect x="60" y="90" width="30" height="30" fill="black" stroke="black" stroke-width="1"/><rect x="90" y="90" width="30" height="30" fill="white" stroke="black" stroke-width="1"/><rect x="120" y="90" width="30" height="30" fill="white" stroke="black" stroke-width="1"/><rect x="150" y="90" width="30" height="30" fill="white" stroke="black" stroke-width="1"/><rect x="180" y="90" width="30" height="30" fill="white" stroke="black" stroke-width="1"/><rect x="210" y="90" width="30" height="30" fill="black" stroke="black" stroke-width="1"/><rect x="240" y="90" width="30" height="30" fill="white" stroke="black" stroke-width="1"/><rect x="270" y="90" width="30" height="30" fill="white" stroke="black" stroke-width="1"/><rect x="0" y="120" width="30" height="30" fill="white" stroke="black" stroke-width="1"/><rect x="30" y="120" width="30" height="30" fill="white" stroke="black" stroke-width="1"/><rect x="60" y="120" width="30" height="30" fill="black" stroke="black" stroke-width="1"/><rect x="90" y="120" width="30" height="30" fill="black" stroke="black" stroke-width="1"/><rect x="120" y="120" width="30" height="30" fill="white" stroke="black" stroke-width="1"/><rect x="150" y="120" width="30" height="30" fill="white" stroke="black" stroke-width="1"/><rect x="180" y="120" width="30" height="30" fill="black" stroke="black" stroke-width="1"/><rect x="210" y="120" width="30" height="30" fill="black" stroke="black" stroke-width="1"/><rect x="240" y="120" width="30" height="30" fill="white" stroke="black" stroke-width="1"/><rect x="270" y="120" width="30" height="30" fill="white" stroke="black" stroke-width="1"/><rect x="0" y="150" width="30" height="30" fill="white" stroke="black" stroke-width="1"/><rect x="30" y="150" width="30" height="30" fill="white" stroke="black" stroke-width="1"/><rect x="60" y="150" width="30" height="30" fill="white" stroke="black" stroke-width="1"/><rect x="90" y="150" width="30" height="30" fill="black" stroke="black" stroke-width="1"/><rect x="120" y="150" width="30" height="30" fill="white" stroke="black" stroke-width="1"/><rect x="150" y="150" width="30" height="30" fill="white" stroke="black" stroke-width="1"/><rect x="180" y="150" width="30" height="30" fill="white" stroke="black" stroke-width="1"/><rect x="210" y="150" width="30" height="30" fill="white" stroke="black" stroke-width="1"/><rect x="240" y="150" width="30" height="30" fill="white" stroke="black" stroke-width="1"/><rect x="270" y="150" width="30" height="30" fill="black" stroke="black" stroke-width="1"/><rect x="0" y="180" width="30" height="30" fill="white" stroke="black" stroke-width="1"/><rect x="30" y="180" width="30" height="30" fill="black" stroke="black" stroke-width="1"/><rect x="60" y="180" width="30" height="30" fill="white" stroke="black" stroke-width="1"/><rect x="90" y="180" width="30" height="30" fill="white" stroke="black" stroke-width="1"/><rect x="120" y="180" width="30" height="30" fill="white" stroke="black" stroke-width="1"/><rect x="150" y="180" width="30" height="30" fill="white" stroke="black" stroke-width="1"/><rect x="180" y="180" width="30" height="30" fill="white" stroke="black" stroke-width="1"/><rect x="210" y="180" width="30" height="30" fill="white" stroke="black" stroke-width="1"/><rect x="240" y="180" width="30" height="30" fill="white" stroke="black" stroke-width="1"/><rect x="270" y="180" width="30" height="30" fill="white" stroke="black" stroke-width="1"/><rect x="0" y="210" width="30" height="30" fill="white" stroke="black" stroke-width="1"/><rect x="30" y="210" width="30" height="30" fill="white" stroke="black" stroke-width="1"/><rect x="60" y="210" width="30" height="30" fill="white" stroke="black" stroke-width="1"/><rect x="90" y="210" width="30" height="30" fill="white" stroke="black" stroke-width="1"/><rect x="120" y="210" width="30" height="30" fill="white" stroke="black" stroke-width="1"/><rect x="150" y="210" width="30" height="30" fill="white" stroke="black" stroke-width="1"/><rect x="180" y="210" width="30" height="30" fill="black" stroke="black" stroke-width="1"/><rect x="210" y="210" width="30" height="30" fill="white" stroke="black" stroke-width="1"/><rect x="240" y="210" width="30" height="30" fill="white" stroke="black" stroke-width="1"/><rect x="270" y="210" width="30" height="30" fill="white" stroke="black" stroke-width="1"/><rect x="0" y="240" width="30" height="30" fill="black" stroke="black" stroke-width="1"/><rect x="30" y="240" width="30" height="30" fill="black" stroke="black" stroke-width="1"/><rect x="60" y="240" width="30" height="30" fill="white" stroke="black" stroke-width="1"/><rect x="90" y="240" width="30" height="30" fill="black" stroke="black" stroke-width="1"/><rect x="120" y="240" width="30" height="30" fill="white" stroke="black" stroke-width="1"/><rect x="150" y="240" width="30" height="30" fill="black" stroke="black" stroke-width="1"/><rect x="180" y="240" width="30" height="30" fill="white" stroke="black" stroke-width="1"/><rect x="210" y="240" width="30" height="30" fill="black" stroke="black" stroke-width="1"/><rect x="240" y="240" width="30" height="30" fill="white" stroke="black" stroke-width="1"/><rect x="270" y="240" width="30" height="30" fill="white" stroke="black" stroke-width="1"/><rect x="0" y="270" width="30" height="30" fill="white" stroke="black" stroke-width="1"/><rect x="30" y="270" width="30" height="30" fill="black" stroke="black" stroke-width="1"/><rect x="60" y="270" width="30" height="30" fill="white" stroke="black" stroke-width="1"/><rect x="90" y="270" width="30" height="30" fill="white" stroke="black" stroke-width="1"/><rect x="120" y="270" width="30" height="30" fill="white" stroke="black" stroke-width="1"/><rect x="150" y="270" width="30" height="30" fill="white" stroke="black" stroke-width="1"/><rect x="180" y="270" width="30" height="30" fill="black" stroke="black" stroke-width="1"/><rect x="210" y="270" width="30" height="30" fill="white" stroke="black" stroke-width="1"/><rect x="240" y="270" width="30" height="30" fill="black" stroke="black" stroke-width="1"/><rect x="270" y="270" width="30" height="30" fill="black" stroke="black" stroke-width="1"/><text x="215" y="250" font-family="Arial" font-size="8" fill="black">1</text><text x="35" y="40" font-family="Arial" font-size="8" fill="black">2</text><text x="155" y="10" font-family="Arial" font-size="8" fill="black">3</text><text x="125" y="10" font-family="Arial" font-size="8" fill="black">4</text><text x="95" y="250" font-family="Arial" font-size="8" fill="black">5</text>
    </g>
  </svg>
  