<svg xmlns="http://www.w3.org/2000/svg" width="512" height="512" viewBox="0 0 512 512">
    <rect x="0" y="0" width="512" height="512" fill="white"/>
    
    <!-- Church building -->
    <rect x="150" y="200" width="200" height="150" fill="none" stroke="black" stroke-width="3"/>
    <polygon points="150,200 250,120 350,200" fill="none" stroke="black" stroke-width="3"/>
    <rect x="220" y="280" width="60" height="70" fill="none" stroke="black" stroke-width="3"/>
    <rect x="170" y="230" width="40" height="60" fill="none" stroke="black" stroke-width="2"/>
    <rect x="300" y="230" width="40" height="60" fill="none" stroke="black" stroke-width="2"/>
    <line x1="170" y1="250" x2="210" y2="250" stroke="black" stroke-width="1"/>
    <line x1="190" y1="230" x2="190" y2="290" stroke="black" stroke-width="1"/>
    <line x1="300" y1="250" x2="340" y2="250" stroke="black" stroke-width="1"/>
    <line x1="320" y1="230" x2="320" y2="290" stroke="black" stroke-width="1"/>
    
    <!-- Church steeple and cross -->
    <rect x="240" y="80" width="20" height="40" fill="none" stroke="black" stroke-width="3"/>
    <polygon points="240,80 250,60 260,80" fill="none" stroke="black" stroke-width="3"/>
    <line x1="250" y1="45" x2="250" y2="65" stroke="black" stroke-width="3"/>
    <line x1="245" y1="50" x2="255" y2="50" stroke="black" stroke-width="3"/>
    
    <!-- Female minister figure -->
    <circle cx="100" cy="250" r="25" fill="none" stroke="black" stroke-width="3"/>
    <rect x="80" y="275" width="40" height="80" fill="none" stroke="black" stroke-width="3"/>
    <rect x="85" y="280" width="30" height="10" fill="none" stroke="black" stroke-width="2"/>
    <circle cx="95" cy="245" r="3" fill="none" stroke="black" stroke-width="2"/>
    <circle cx="105" cy="245" r="3" fill="none" stroke="black" stroke-width="2"/>
    <path d="M 92 255 Q 100 260 108 255" fill="none" stroke="black" stroke-width="2"/>
    
    <!-- Hair styled for 1800s -->
    <path d="M 80 240 Q 90 220 100 240" fill="none" stroke="black" stroke-width="2"/>
    <path d="M 100 240 Q 110 220 120 240" fill="none" stroke="black" stroke-width="2"/>
    <path d="M 85 235 Q 100 225 115 235" fill="none" stroke="black" stroke-width="2"/>
    
    <!-- Minister's dress -->
    <rect x="70" y="355" width="60" height="40" fill="none" stroke="black" stroke-width="3"/>
    <line x1="80" y1="370" x2="120" y2="370" stroke="black" stroke-width="2"/>
    <line x1="80" y1="380" x2="120" y2="380" stroke="black" stroke-width="2"/>
    
    <!-- Arms and hands -->
    <rect x="65" y="290" width="12" height="30" fill="none" stroke="black" stroke-width="2"/>
    <rect x="123" y="290" width="12" height="30" fill="none" stroke="black" stroke-width="2"/>
    <circle cx="71" cy="325" r="5" fill="none" stroke="black" stroke-width="2"/>
    <circle cx="129" cy="325" r="5" fill="none" stroke="black" stroke-width="2"/>
    
    <!-- Bible in hands -->
    <rect x="65" y="320" width="20" height="15" fill="none" stroke="black" stroke-width="2"/>
    <line x1="70" y1="325" x2="80" y2="325" stroke="black" stroke-width="1"/>
    <line x1="70" y1="330" x2="80" y2="330" stroke="black" stroke-width="1"/>
    
    <!-- Pulpit -->
    <rect x="380" y="280" width="60" height="80" fill="none" stroke="black" stroke-width="3"/>
    <rect x="370" y="270" width="80" height="15" fill="none" stroke="black" stroke-width="3"/>
    <rect x="385" y="285" width="50" height="30" fill="none" stroke="black" stroke-width="2"/>
    <path d="M 390 300 Q 410 295 430 300" fill="none" stroke="black" stroke-width="2"/>
    <rect x="405" y="290" width="10" height="8" fill="none" stroke="black" stroke-width="2"/>
    
    <!-- Church pews -->
    <rect x="50" y="380" width="100" height="20" fill="none" stroke="black" stroke-width="2"/>
    <rect x="50" y="410" width="100" height="20" fill="none" stroke="black" stroke-width="2"/>
    <rect x="200" y="380" width="100" height="20" fill="none" stroke="black" stroke-width="2"/>
    <rect x="200" y="410" width="100" height="20" fill="none" stroke="black" stroke-width="2"/>
    
    <!-- Decorative elements -->
    <circle cx="250" cy="160" r="15" fill="none" stroke="black" stroke-width="2"/>
    <polygon points="240,155 250,145 260,155" fill="none" stroke="black" stroke-width="2"/>
    <polygon points="245,165 250,155 255,165" fill="none" stroke="black" stroke-width="2"/>
    
    <!-- Banner or text scroll -->
    <rect x="30" y="100" width="120" height="80" rx="10" fill="none" stroke="black" stroke-width="3"/>
    <line x1="40" y1="120" x2="140" y2="120" stroke="black" stroke-width="2"/>
    <line x1="40" y1="140" x2="140" y2="140" stroke="black" stroke-width="2"/>
    <line x1="40" y1="160" x2="140" y2="160" stroke="black" stroke-width="2"/>
    
    <!-- Books/educational materials -->
    <rect x="20" y="450" width="30" height="40" fill="none" stroke="black" stroke-width="2"/>
    <rect x="60" y="450" width="30" height="40" fill="none" stroke="black" stroke-width="2"/>
    <rect x="100" y="450" width="30" height="40" fill="none" stroke="black" stroke-width="2"/>
    <line x1="25" y1="460" x2="45" y2="460" stroke="black" stroke-width="1"/>
    <line x1="25" y1="470" x2="45" y2="470" stroke="black" stroke-width="1"/>
    <line x1="65" y1="460" x2="85" y2="460" stroke="black" stroke-width="1"/>
    <line x1="65" y1="470" x2="85" y2="470" stroke="black" stroke-width="1"/>
  </svg>