<svg xmlns="http://www.w3.org/2000/svg" width="1024" height="1024" viewBox="0 0 1024 1024">
    <rect x="0" y="0" width="1024" height="1024" fill="white"/>
    
    <!-- Large whale - detailed and anatomically accurate -->
    <ellipse cx="200" cy="300" rx="120" ry="50" fill="none" stroke="black" stroke-width="3"/>
    <ellipse cx="280" cy="320" rx="40" ry="30" fill="none" stroke="black" stroke-width="3"/>
    <circle cx="290" cy="310" r="8" fill="none" stroke="black" stroke-width="3"/>
    <path d="M 310 320 Q 320 315 315 325" fill="none" stroke="black" stroke-width="3"/>
    
    <!-- Whale spout and fins -->
    <path d="M 280 280 Q 285 260 290 280" fill="none" stroke="black" stroke-width="3"/>
    <path d="M 285 260 Q 290 240 295 260" fill="none" stroke="black" stroke-width="1.5"/>
    <ellipse cx="180" cy="280" rx="25" ry="15" fill="none" stroke="black" stroke-width="3"/>
    <polygon points="80,300 50,280 50,320" fill="none" stroke="black" stroke-width="3"/>
    <ellipse cx="200" cy="350" rx="20" ry="10" fill="none" stroke="black" stroke-width="1.5"/>
    
    <!-- Whale baleen lines -->
    <line x1="300" y1="330" x2="300" y2="340" stroke="black" stroke-width="1"/>
    <line x1="305" y1="330" x2="305" y2="340" stroke="black" stroke-width="1"/>
    <line x1="310" y1="330" x2="310" y2="340" stroke="black" stroke-width="1"/>
    
    <!-- Dolphin - playful and detailed -->
    <ellipse cx="600" cy="200" rx="80" ry="30" fill="none" stroke="black" stroke-width="3"/>
    <ellipse cx="650" cy="210" rx="25" ry="20" fill="none" stroke="black" stroke-width="3"/>
    <path d="M 675 210 Q 690 205 685 215" fill="none" stroke="black" stroke-width="3"/>
    <circle cx="660" cy="200" r="4" fill="none" stroke="black" stroke-width="3"/>
    <path d="M 665 210 Q 670 215 675 210" fill="none" stroke="black" stroke-width="1.5"/>
    
    <!-- Dolphin fins and tail -->
    <ellipse cx="580" cy="180" rx="15" ry="25" fill="none" stroke="black" stroke-width="3"/>
    <polygon points="520,200 480,180 480,220" fill="none" stroke="black" stroke-width="3"/>
    <ellipse cx="600" cy="230" rx="12" ry="8" fill="none" stroke="black" stroke-width="1.5"/>
    
    <!-- Starfish - detailed five-pointed -->
    <path d="M 400 500 L 415 470 L 445 475 L 425 500 L 440 530 L 400 515 L 360 530 L 375 500 L 355 475 L 385 470 L 400 500" fill="none" stroke="black" stroke-width="3"/>
    <circle cx="400" cy="500" r="15" fill="none" stroke="black" stroke-width="3"/>
    <circle cx="400" cy="485" r="3" fill="none" stroke="black" stroke-width="1.5"/>
    <circle cx="415" cy="495" r="3" fill="none" stroke="black" stroke-width="1.5"/>
    <circle cx="415" cy="505" r="3" fill="none" stroke="black" stroke-width="1.5"/>
    <circle cx="385" cy="495" r="3" fill="none" stroke="black" stroke-width="1.5"/>
    <circle cx="385" cy="505" r="3" fill="none" stroke="black" stroke-width="1.5"/>
    
    <!-- Seahorse - intricate and detailed -->
    <path d="M 150 600 Q 160 580 170 600 Q 180 620 170 640 Q 160 660 150 640 Q 140 650 150 600" fill="none" stroke="black" stroke-width="3"/>
    <circle cx="155" cy="590" r="12" fill="none" stroke="black" stroke-width="3"/>
    <circle cx="153" cy="587" r="3" fill="none" stroke="black" stroke-width="1.5"/>
    <path d="M 145 585 Q 140 580 145 575" fill="none" stroke="black" stroke-width="1.5"/>
    
    <!-- Seahorse details -->
    <line x1="155" y1="605" x2="155" y2="615" stroke="black" stroke-width="1"/>
    <line x1="155" y1="625" x2="155" y2="635" stroke="black" stroke-width="1"/>
    <line x1="155" y1="645" x2="155" y2="655" stroke="black" stroke-width="1"/>
    <path d="M 165 650 Q 180 660 175 675" fill="none" stroke="black" stroke-width="1.5"/>
    <path d="M 175 675 Q 180 685 185 675 Q 190 680 185 685" fill="none" stroke="black" stroke-width="1.5"/>
    
    <!-- Coral formations -->
    <path d="M 800 800 Q 820 780 840 800 Q 860 820 840 840 Q 820 820 800 840" fill="none" stroke="black" stroke-width="3"/>
    <path d="M 810 800 Q 830 780 850 800 Q 870 820 850 840 Q 830 820 810 840" fill="none" stroke="black" stroke-width="1.5"/>
    <circle cx="825" cy="790" r="8" fill="none" stroke="black" stroke-width="1.5"/>
    <circle cx="835" cy="810" r="6" fill="none" stroke="black" stroke-width="1.5"/>
    <circle cx="815" cy="830" r="7" fill="none" stroke="black" stroke-width="1.5"/>
    
    <!-- Seaweed -->
    <path d="M 900 900 Q 910 880 920 900 Q 930 920 920 940 Q 910 920 900 940" fill="none" stroke="black" stroke-width="3"/>
    <path d="M 910 900 Q 920 880 930 900 Q 940 920 930 940 Q 920 920 910 940" fill="none" stroke="black" stroke-width="1.5"/>
    <path d="M 880 900 Q 890 880 900 900 Q 910 920 900 940 Q 890 920 880 940" fill="none" stroke="black" stroke-width="1.5"/>
    
    <!-- Ocean floor -->
    <path d="M 0 900 Q 100 890 200 900 Q 300 910 400 900 Q 500 890 600 900 Q 700 910 800 900 Q 900 890 1024 900 L 1024 1024 L 0 1024 Z" fill="none" stroke="black" stroke-width="3"/>
    
    <!-- Bubbles -->
    <circle cx="150" cy="150" r="12" fill="none" stroke="black" stroke-width="3"/>
    <circle cx="180" cy="120" r="8" fill="none" stroke="black" stroke-width="3"/>
    <circle cx="210" cy="90" r="6" fill="none" stroke="black" stroke-width="3"/>
    <circle cx="400" cy="180" r="10" fill="none" stroke="black" stroke-width="3"/>
    <circle cx="430" cy="150" r="7" fill="none" stroke="black" stroke-width="3"/>
    <circle cx="600" cy="120" r="9" fill="none" stroke="black" stroke-width="3"/>
    <circle cx="750" cy="200" r="11" fill="none" stroke="black" stroke-width="3"/>
    
    <!-- Schools of small fish -->
    <ellipse cx="300" cy="400" rx="8" ry="4" fill="none" stroke="black" stroke-width="1.5"/>
    <ellipse cx="320" cy="395" rx="8" ry="4" fill="none" stroke="black" stroke-width="1.5"/>
    <ellipse cx="310" cy="410" rx="8" ry="4" fill="none" stroke="black" stroke-width="1.5"/>
    <ellipse cx="330" cy="405" rx="8" ry="4" fill="none" stroke="black" stroke-width="1.5"/>
    <ellipse cx="340" cy="390" rx="8" ry="4" fill="none" stroke="black" stroke-width="1.5"/>
  </svg>