<svg viewBox="0 0 1024 1024" xmlns="http://www.w3.org/2000/svg">
  <rect width="1024" height="1024" fill="white"/>
  
  <!-- Professional Farm Scene Coloring Page -->
  <g stroke="#000000" fill="none" stroke-width="3">
    
    <!-- Barn -->
    <rect x="150" y="300" width="200" height="150" stroke-width="4"/>
    <polygon points="150,300 250,200 350,300" stroke-width="4"/>
    <rect x="200" y="350" width="40" height="60" stroke-width="3"/>
    <rect x="280" y="320" width="50" height="40" stroke-width="2"/>
    <path d="M 280 340 L 330 340 M 305 320 L 305 360" stroke-width="2"/>
    
    <!-- Cow -->
    <ellipse cx="500" cy="400" rx="80" ry="50" stroke-width="4"/>
    <circle cx="450" cy="380" r="35" stroke-width="4"/>
    <rect x="470" y="450" width="12" height="40" stroke-width="3"/>
    <rect x="490" y="450" width="12" height="40" stroke-width="3"/>
    <rect x="510" y="450" width="12" height="40" stroke-width="3"/>
    <rect x="530" y="450" width="12" height="40" stroke-width="3"/>
    <polygon points="420,370 430,350 440,370" stroke-width="3"/>
    <polygon points="440,370 450,350 460,370" stroke-width="3"/>
    <circle cx="435" cy="375" r="3" fill="black"/>
    <circle cx="445" cy="375" r="3" fill="black"/>
    <path d="M 430 385 Q 440 390 450 385" stroke-width="2"/>
    
    <!-- Pig -->
    <ellipse cx="650" cy="420" rx="60" ry="40" stroke-width="4"/>
    <circle cx="620" cy="400" r="25" stroke-width="4"/>
    <rect x="635" y="460" width="10" height="30" stroke-width="3"/>
    <rect x="650" y="460" width="10" height="30" stroke-width="3"/>
    <rect x="665" y="460" width="10" height="30" stroke-width="3"/>
    <rect x="680" y="460" width="10" height="30" stroke-width="3"/>
    <polygon points="605,395 610,385 615,395" stroke-width="3"/>
    <polygon points="615,395 620,385 625,395" stroke-width="3"/>
    <circle cx="610" cy="395" r="2" fill="black"/>
    <circle cx="620" cy="395" r="2" fill="black"/>
    <ellipse cx="615" cy="405" rx="8" ry="5" stroke-width="2"/>
    <circle cx="612" cy="405" r="1" fill="black"/>
    <circle cx="618" cy="405" r="1" fill="black"/>
    
    <!-- Chicken -->
    <ellipse cx="780" cy="430" rx="40" ry="30" stroke-width="4"/>
    <circle cx="750" cy="410" r="20" stroke-width="4"/>
    <polygon points="730,410 740,400 740,420" stroke-width="3"/>
    <path d="M 745 425 Q 750 430 755 425" stroke-width="2"/>
    <rect x="770" y="460" width="8" height="20" stroke-width="3"/>
    <rect x="785" y="460" width="8" height="20" stroke-width="3"/>
    <path d="M 770 480 L 775 485 L 780 480 M 785 480 L 790 485 L 795 480" stroke-width="2"/>
    <circle cx="745" cy="405" r="2" fill="black"/>
    <polygon points="740,395 745,385 750,395" stroke-width="2"/>
    
    <!-- Fence -->
    <g stroke-width="3">
      <rect x="100" y="500" width="8" height="60"/>
      <rect x="120" y="500" width="8" height="60"/>
      <rect x="140" y="500" width="8" height="60"/>
      <rect x="160" y="500" width="8" height="60"/>
      <rect x="180" y="500" width="8" height="60"/>
      <rect x="200" y="500" width="8" height="60"/>
      <line x1="100" y1="520" x2="208" y2="520" stroke-width="2"/>
      <line x1="100" y1="540" x2="208" y2="540" stroke-width="2"/>
    </g>
    
    <!-- Grass and ground details -->
    <path d="M 50 580 Q 60 570 70 580 Q 80 570 90 580 Q 100 570 110 580" stroke-width="2"/>
    <path d="M 200 590 Q 210 580 220 590 Q 230 580 240 590 Q 250 580 260 590" stroke-width="2"/>
    <path d="M 400 580 Q 410 570 420 580 Q 430 570 440 580 Q 450 570 460 580" stroke-width="2"/>
    <path d="M 600 590 Q 610 580 620 590 Q 630 580 640 590 Q 650 580 660 590" stroke-width="2"/>
    <path d="M 750 580 Q 760 570 770 580 Q 780 570 790 580 Q 800 570 810 580" stroke-width="2"/>
    
    <!-- Sun -->
    <circle cx="850" cy="150" r="40" stroke-width="4"/>
    <g stroke-width="3">
      <line x1="850" y1="80" x2="850" y2="100"/>
      <line x1="850" y1="200" x2="850" y2="220"/>
      <line x1="780" y1="150" x2="800" y2="150"/>
      <line x1="900" y1="150" x2="920" y2="150"/>
      <line x1="795" y1="105" x2="810" y2="120"/>
      <line x1="890" y1="180" x2="905" y2="195"/>
      <line x1="905" y1="105" x2="890" y2="120"/>
      <line x1="810" y1="180" x2="795" y2="195"/>
    </g>
    
    <!-- Clouds -->
    <g stroke-width="3">
      <circle cx="200" cy="100" r="25"/>
      <circle cx="230" cy="100" r="30"/>
      <circle cx="260" cy="100" r="25"/>
      <circle cx="215" cy="80" r="20"/>
      <circle cx="245" cy="80" r="20"/>
      
      <circle cx="600" cy="120" r="20"/>
      <circle cx="625" cy="120" r="25"/>
      <circle cx="650" cy="120" r="20"/>
      <circle cx="615" cy="105" r="15"/>
      <circle cx="635" cy="105" r="15"/>
    </g>
  </g>
</svg>