<svg viewBox="0 0 1024 1024" xmlns="http://www.w3.org/2000/svg">
  <!-- Background ocean floor -->
  <path d="M0 800 Q150 780 300 790 T600 785 T900 795 L1024 800 L1024 1024 L0 1024 Z" fill="none" stroke="#000000" stroke-width="3"/>
  
  <!-- Sand ripples on ocean floor -->
  <path d="M50 820 Q100 815 150 820 T250 822 T350 818" fill="none" stroke="#000000" stroke-width="1.5"/>
  <path d="M400 825 Q450 820 500 825 T600 827 T700 823" fill="none" stroke="#000000" stroke-width="1.5"/>
  <path d="M750 830 Q800 825 850 830 T950 832" fill="none" stroke="#000000" stroke-width="1.5"/>
  
  <!-- Blue Whale (large, background) -->
  <g transform="translate(100,200)">
    <ellipse cx="200" cy="80" rx="180" ry="45" fill="none" stroke="#000000" stroke-width="3"/>
    <path d="M20 80 Q0 70 10 50 Q30 35 60 45 L200 80" fill="none" stroke="#000000" stroke-width="3"/>
    <path d="M380 80 Q400 70 390 90 Q370 105 340 95 L200 80" fill="none" stroke="#000000" stroke-width="3"/>
    <ellipse cx="150" cy="60" rx="8" ry="6" fill="none" stroke="#000000" stroke-width="1.5"/>
    <path d="M180 40 Q190 35 200 40 Q210 35 220 40" fill="none" stroke="#000000" stroke-width="1.5"/>
    <path d="M190 120 Q200 130 210 120 Q220 130 230 120" fill="none" stroke="#000000" stroke-width="1.5"/>
    <path d="M250 120 Q260 130 270 120" fill="none" stroke="#000000" stroke-width="1.5"/>
  </g>
  
  <!-- Large Coral Reef Formation -->
  <g transform="translate(650,500)">
    <path d="M0 200 Q20 180 40 190 Q60 170 80 185 Q100 160 120 175 Q140 150 160 165 Q180 140 200 155 Q220 130 240 145 Q260 120 280 135 L280 200 Z" fill="none" stroke="#000000" stroke-width="3"/>
    <path d="M50 200 Q70 175 90 185 Q110 160 130 170 Q150 145 170 155" fill="none" stroke="#000000" stroke-width="1.5"/>
    <path d="M200 200 Q220 170 240 180" fill="none" stroke="#000000" stroke-width="1.5"/>
    <circle cx="80" cy="180" r="8" fill="none" stroke="#000000" stroke-width="1.5"/>
    <circle cx="150" cy="165" r="6" fill="none" stroke="#000000" stroke-width="1.5"/>
    <circle cx="220" cy="170" r="7" fill="none" stroke="#000000" stroke-width="1.5"/>
  </g>
  
  <!-- Tall Seaweed (left side) -->
  <g transform="translate(50,400)">
    <path d="M20 400 Q10 350 25 300 Q5 250 30 200 Q15 150 35 100 Q20 50 40 0" fill="none" stroke="#000000" stroke-width="3"/>
    <path d="M60 400 Q70 360 55 320 Q75 280 50 240 Q70 200 45 160 Q65 120 50 80" fill="none" stroke="#000000" stroke-width="3"/>
    <path d="M90 400 Q80 370 95 340 Q75 300 100 260 Q85 220 105 180" fill="none" stroke="#000000" stroke-width="3"/>
  </g>
  
  <!-- Dolphins (two dolphins playing) -->
  <g transform="translate(400,350)">
    <ellipse cx="60" cy="40" rx="50" ry="20" fill="none" stroke="#000000" stroke-width="3"/>
    <path d="M10 40 Q0 35 5 25 Q15 20 25 30" fill="none" stroke="#000000" stroke-width="3"/>
    <path d="M110 40 Q120 35 115 50 Q105 55 95 45" fill="none" stroke="#000000" stroke-width="3"/>
    <path d="M85 20 Q95 10 105 20 Q95 30 85 20" fill="none" stroke="#000000" stroke-width="3"/>
    <path d="M70 60 Q80 70 90 60" fill="none" stroke="#000000" stroke-width="3"/>
    <circle cx="40" cy="35" r="3" fill="none" stroke="#000000" stroke-width="1.5"/>
    <path d="M30 32 Q35 28 40 32" fill="none" stroke="#000000" stroke-width="1.5"/>
  </g>
  
  <!-- Second Dolphin -->
  <g transform="translate(500,280) rotate(15)">
    <ellipse cx="60" cy="40" rx="45" ry="18" fill="none" stroke="#000000" stroke-width="3"/>
    <path d="M15 40 Q5 35 10 25 Q20 20 30 30" fill="none" stroke="#000000" stroke-width="3"/>
    <path d="M105 40 Q115 35 110 50 Q100 55 90 45" fill="none" stroke="#000000" stroke-width="3"/>
    <path d="M80 22 Q90 12 100 22 Q90 32 80 22" fill="none" stroke="#000000" stroke-width="3"/>
    <path d="M65 58 Q75 68 85 58" fill="none" stroke="#000000" stroke-width="3"/>
    <circle cx="40" cy="35" r="3" fill="none" stroke="#000000" stroke-width="1.5"/>
  </g>
  
  <!-- Clownfish -->
  <g transform="translate(200,500)">
    <ellipse cx="40" cy="25" rx="35" ry="18" fill="none" stroke="#000000" stroke-width="3"/>
    <path d="M5 25 Q0 20 8 15 Q15 20 20 25" fill="none" stroke="#000000" stroke-width="3"/>
    <path d="M75 25 Q85 15 90 25 Q85 35 75 25" fill="none" stroke="#000000" stroke-width="3"/>
    <path d="M35 7 Q45 0 55 7 Q50 15 45 10 Q40 15 35 7" fill="none" stroke="#000000" stroke-width="3"/>
    <path d="M35 43 Q45 50 55 43 Q50 35 45 40 Q40 35 35 43" fill="none" stroke="#000000" stroke-width="3"/>
    <circle cx="25" cy="20" r="4" fill="none" stroke="#000000" stroke-width="1.5"/>
    <circle cx="27" cy="18" r="1.5" fill="none" stroke="#000000" stroke-width="1.5"/>
    <path d="M15 25 L65 25" fill="none" stroke="#000000" stroke-width="1.5"/>
    <path d="M20 15 Q25 10 30 15 Q35 10 40 15" fill="none" stroke="#000000" stroke-width="1.5"/>
    <path d="M45 15 Q50 10 55 15 Q60 10 65 15" fill="none" stroke="#000000" stroke-width="1.5"/>
  </g>
  
  <!-- Angelfish -->
  <g transform="translate(750,400)">
    <path d="M40 50 Q20 30 25 10 Q35 0 50 15 Q65 0 75 10 Q80 30 60 50 Q80 70 75 90 Q65 100 50 85 Q35 100 25 90 Q20 70 40 50" fill="none" stroke="#000000" stroke-width="3"/>
    <path d="M25 50 Q15 45 20 35 Q25 40 30 50" fill="none" stroke="#000000" stroke-width="3"/>
    <path d="M75 50 Q85 45 80 60 Q75 55 70 50" fill="none" stroke="#000000" stroke-width="3"/>
    <circle cx="35" cy="35" r="3" fill="none" stroke="#000000" stroke-width="1.5"/>
    <path d="M30 50 Q40 45 50 50 Q60 45 70 50" fill="none" stroke="#000000" stroke-width="1.5"/>
    <path d="M35 60 Q45 55 55 60" fill="none" stroke="#000000" stroke-width="1.5"/>
  </g>
  
  <!-- Starfish (on coral) -->
  <g transform="translate(720,650)">
    <path d="M50 50 L60 30 L70 50 L90 45 L75 60 L85 80 L65 70 L50 85 L35 70 L15 80 L25 60 L10 45 L30 50 L40 30 Z" fill="none" stroke="#000000" stroke-width="3"/>
    <circle cx="50" cy="50" r="8" fill="none" stroke="#000000" stroke-width="1.5"/>
    <circle cx="50" cy="50" r="3" fill="none" stroke="#000000" stroke-width="1.5"/>
    <path d="M50 42 L50 38" fill="none" stroke="#000000" stroke-width="1.5"/>
    <path d="M67 55 L71 53" fill="none" stroke="#000000" stroke-width="1.5"/>
    <path d="M60 70 L62 74" fill="none" stroke="#000000" stroke-width="1.5"/>
    <path d="M40 70 L38 74" fill="none" stroke="#000000" stroke-width="1.5"/>
    <path d="M33 55 L29 53" fill="none" stroke="#000000" stroke-width="1.5"/>
  </g>
  
  <!-- Small Coral Formation (right) -->
  <g transform="translate(850,650)">
    <path d="M0 100 Q10 80 20 85 Q30 70 40 80 Q50 65 60 75 Q70 60 80 70 L80 100 Z" fill="none" stroke="#000000" stroke-width="3"/>
    <circle cx="25" cy="82" r="4" fill="none" stroke="#000000" stroke-width="1.5"/>
    <circle cx="55" cy="78" r="3" fill="none" stroke="#000000" stroke-width="1.5"/>
  </g>
  
  <!-- Seaweed (right side) -->
  <g transform="translate(900,450)">
    <path d="M20 350 Q10 300 25 250 Q5 200 30 150 Q15 100 35 50" fill="none" stroke="#000000" stroke-width="3"/>
    <path d="M50 350 Q60 310 45 270 Q65 230 40 190 Q60 150 45 110" fill="none" stroke="#000000" stroke-width="3"/>
  </g>
  
  <!-- Small seaweed cluster (center-left) -->
  <g transform="translate(300,600)">
    <path d="M10 200 Q5 170 15 140 Q0 110 20 80" fill="none" stroke="#000000" stroke-width="2"/>
    <path d="M30 200 Q35 175 25 150 Q40 125 20 100" fill="none" stroke="#000000" stroke-width="2"/>
    <path d="M50 200 Q45 180 55 160 Q40 140 60 120" fill="none" stroke="#000000" stroke-width="2"/>
  </g>
  
  <!-- Bubbles throughout the scene -->
  <circle cx="150" cy="100" r="8" fill="none" stroke="#000000" stroke-width="1.5"/>
  <circle cx="180" cy="80" r="6" fill="none" stroke="#000000" stroke-width="1.5"/>
  <circle cx="200" cy="120" r="4" fill="none" stroke="#000000" stroke-width="1.5"/>
  <circle cx="600" cy="200" r="7" fill="none" stroke="#000000" stroke-width="1.5"/>
  <circle cx="630" cy="180" r="5" fill="none" stroke="#000000" stroke-width="1.5"/>
  <circle cx="650" cy="160" r="9" fill="none" stroke="#000000" stroke-width="1.5"/>
  <circle cx="400" cy="250" r="6" fill="none" stroke="#000000" stroke-width="1.5"/>
  <circle cx="420" cy="230" r="4" fill="none" stroke="#000000" stroke-width="1.5"/>
  <circle cx="350" cy="180" r="5" fill="none" stroke="#000000" stroke-width="1.5"/>
  <circle cx="800" cy="300" r="7" fill="none" stroke="#000000" stroke-width="1.5"/>
  <circle cx="780" cy="280" r="4" fill="none" stroke="#000000" stroke-width="1.5"/>
  <circle cx="250" cy="350" r="6" fill="none" stroke="#000000" stroke-width="1.5"/>
  <circle cx="270" cy="320" r="8" fill="none" stroke="#000000" stroke-width="1.5"/>
</svg>